# xmcd
#
# Track frame offsets:
#	150
#	19095
#	31298
#	50670
#	65078
#	79358
#	92355
#	107560
#	119023
#	133315
#
# Disc length: 1983 seconds
#
# Revision: 4
# Processed by: cddbd v1.5.1PL0 Copyright (c) Steve Scherf et al.
# Submitted via: dBpowerAMP V4.0
#
DISCID=8b07bd0a
DTITLE=George Jones  - One
DYEAR=1995
DGENRE=Country
TTITLE0=One
TTITLE1=It's An Old Love Thing
TTITLE2=What Ever Happened To Us
TTITLE3=Will You Travel Down This Road With Me
TTITLE4=She's Just An Old Love Turned Memory
TTITLE5=If God Met You
TTITLE6=Just Look What We've Started Again
TTITLE7=Solid As A Rock
TTITLE8=There're Playing Our Song
TTITLE9=All I Have To Offer You Is Me
EXTD=
EXTT0=
EXTT1=
EXTT2=
EXTT3=
EXTT4=
EXTT5=
EXTT6=
EXTT7=
EXTT8=
EXTT9=
PLAYORDER=
